<svg width="24" height="24" viewBox="0 0 24 24" fill="none" xmlns="http://www.w3.org/2000/svg">
<path fill-rule="evenodd" clip-rule="evenodd" d="M7.52312 5.63088L6.46157 4.75396C6.1385 4.52319 5.76926 4.56934 5.49234 4.84626L0.138462 11.5847C-0.0461541 11.8155 -0.0461541 12.1847 0.138462 12.4616L5.53849 19.1539C5.76926 19.4308 6.18465 19.5231 6.50773 19.2462L7.56927 18.3693C7.89235 18.1385 7.93851 17.677 7.66158 17.4001L3.3231 12.0001L7.70774 6.6001C7.89235 6.32318 7.8462 5.9078 7.52312 5.63088ZM23.8615 11.5843L18.4615 4.89205C18.2307 4.61512 17.8153 4.52282 17.4922 4.79974L16.4307 5.67666C16.1076 5.90743 16.0615 6.36896 16.3384 6.64588L20.723 12.0459L16.3384 17.4458C16.1076 17.7228 16.1538 18.1843 16.4307 18.4151L17.4922 19.292C17.8153 19.5227 18.1846 19.4766 18.4615 19.1997L23.8615 12.4612C24.0461 12.1382 24.0461 11.8151 23.8615 11.5843ZM14.5845 4.98474L13.1999 4.66167C12.8306 4.56936 12.4152 4.80013 12.3229 5.16936L8.90752 18.277C8.81521 18.6462 9.04598 19.0154 9.41521 19.1078L10.7998 19.4308C11.1691 19.5231 11.5845 19.2924 11.6768 18.9231L15.0922 5.81551C15.1845 5.40012 14.9537 5.07705 14.5845 4.98474Z" fill="#747474"/>
</svg>
