<svg width="33" height="32" viewBox="0 0 33 32" fill="none" xmlns="http://www.w3.org/2000/svg">
<path fill-rule="evenodd" clip-rule="evenodd" d="M13.413 7.32291C14.459 6.27674 15.8742 5.5998 17.4739 5.5998C19.5658 5.5998 21.4117 6.76905 22.3961 8.49216C23.2575 8.12292 24.1804 7.87676 25.1649 7.87676C28.9796 7.87676 32.056 10.9537 32.056 14.7692C32.056 18.5846 28.9796 21.6616 25.1649 21.6616C24.6726 21.6616 24.2419 21.6001 23.8112 21.5385C22.9499 23.077 21.2886 24.1232 19.3812 24.1232C18.5814 24.1232 17.843 23.9386 17.1662 23.6309C16.3049 25.6617 14.2744 27.0771 11.8749 27.0771C9.41374 27.0771 7.26027 25.5386 6.46041 23.3232C6.09125 23.3847 5.72208 23.4462 5.35291 23.4462C2.39958 23.4462 0 21.0462 0 18.0923C0 16.123 1.04597 14.3999 2.64569 13.4769C2.33805 12.7384 2.15347 11.8768 2.15347 11.0153C2.15347 7.6306 4.92222 4.86133 8.36777 4.86133C10.5212 4.92287 12.3055 5.84596 13.413 7.32291Z" fill="#08ABED"/>
</svg>
